<?xml version="1.0" standalone="no"?>
<!DOCTYPE svg PUBLIC "-//W3C//DTD SVG 20010904//EN"
 "http://www.w3.org/TR/2001/REC-SVG-20010904/DTD/svg10.dtd">
<svg version="1.0" xmlns="http://www.w3.org/2000/svg"
 width="500.000000pt" height="500.000000pt" viewBox="0 0 500.000000 500.000000"
 preserveAspectRatio="xMidYMid meet">
<metadata>
Created by potrace 1.14, written by Peter Selinger 2001-2017
</metadata>
<g transform="translate(0.000000,500.000000) scale(0.100000,-0.100000)"
fill="#000000" stroke="none">
<path d="M2675 4289 c-99 -13 -131 -20 -221 -44 -394 -104 -746 -395 -929
-769 -95 -194 -142 -376 -152 -590 -6 -122 -11 -136 -49 -142 -6 -1 -37 -14
-70 -29 -162 -75 -351 -237 -448 -383 -141 -213 -199 -414 -191 -667 4 -143 8
-170 36 -260 10 -33 19 -66 19 -73 0 -25 100 -214 147 -281 49 -67 158 -182
228 -238 109 -87 303 -177 450 -209 94 -20 316 -27 395 -13 190 34 310 80 455
175 187 122 323 285 415 497 l34 77 65 1 c131 1 250 16 361 46 430 116 788
411 965 798 20 44 40 87 44 95 18 35 55 171 76 274 18 92 22 140 20 281 -1 94
-5 179 -7 190 -3 11 -9 40 -13 65 -33 209 -156 478 -303 660 -39 48 -168 179
-217 220 -46 38 -193 133 -260 167 -152 79 -309 127 -500 153 -71 9 -280 9
-350 -1z"/>
</g>
</svg>
